<?xml version="1.0" encoding="utf-8"?><!DOCTYPE svg  PUBLIC '-//W3C//DTD SVG 1.0//EN'  'http://www.w3.org/TR/2001/REC-SVG-20010904/DTD/svg10.dtd'><svg viewBox="0 0 67.85 87.43" xmlns="http://www.w3.org/2000/svg" xmlns:xlink="http://www.w3.org/1999/xlink"><style>:root>svg{display:none}:root>svg:target{display:block}</style><svg viewBox="0 0 24 24" id="accordion-arrow" xmlns="http://www.w3.org/2000/svg"><path d="M0 0h24v24H0V0z" fill="none"/><path d="M7.41 8.59L12 13.17l4.59-4.58L18 10l-6 6-6-6 1.41-1.41z"/></svg><svg viewBox="0 0 24 24" id="arrow-down" xmlns="http://www.w3.org/2000/svg"><path fill="none" d="M0 0h24v24H0z"/><path d="M19 15l-1.41-1.41L13 18.17V2h-2v16.17l-4.59-4.59L5 15l7 7 7-7z"/></svg><svg version="1.0" viewBox="0 0 24 24" id="calculate" xmlns="http://www.w3.org/2000/svg"><path d="M18 2H6c-1.1 0-2 .9-2 2v16c0 1.1.9 2 2 2h12c1.1 0 2-.9 2-2V4c0-1.1-.9-2-2-2zm0 6H6V4h12v4zm-9 4H7v-2h2v2zm4 0h-2v-2h2v2zm-4 4H7v-2h2v2zm4 0h-2v-2h2v2zm-4 4H7v-2h2v2zm4 0h-2v-2h2v2zm4-8h-2v-2h2v2zm0 4h-2v-2h2v2zm0 4h-2v-2h2v2z"/><path d="M15 5h2v2h-2z"/></svg><svg fill="#e82c32" viewBox="0 0 24 24" id="check" xmlns="http://www.w3.org/2000/svg"><path d="M0 0h24v24H0z" fill="none"/><path d="M9 16.17L4.83 12l-1.42 1.41L9 19 21 7l-1.41-1.41z"/></svg><svg data-name="Слой 1" viewBox="0 0 67.85 87.43" id="doc" xmlns="http://www.w3.org/2000/svg"><path d="M67.51 22.04L45.81.37l-.33-.34H0v87.43h67.81V22.37zm-3.88 61.18H4.22v-79H46v17.63h17.63z" fill="#a5acc6"/><path fill="#e72c31" d="M30.14 17.99h11.58v3.83H30.14zM30.11 28.05h28.6v3.83h-28.6zM9.87 38.12h48.84v3.83H9.87zM9.87 48.18h48.84v3.83H9.87zM33.98 63.37a3.37 3.37 0 00-2.64 1.12 6.16 6.16 0 000 6.79 3.56 3.56 0 005.23 0 5 5 0 001-3.43 5 5 0 00-1-3.38 3.36 3.36 0 00-2.59-1.1z"/><path d="M9.88 56.37v22.66h48.93V56.37zm15.59 14.48a5.76 5.76 0 01-1.41 2.32 4.63 4.63 0 01-1.86 1 7.92 7.92 0 01-2.36.28h-5V61.3h4.86a9.44 9.44 0 012.51.25 4.42 4.42 0 012 1.21 5.79 5.79 0 011.26 2.13 10 10 0 01.43 3.12 8.66 8.66 0 01-.43 2.8zm13.16 2.08a6.91 6.91 0 01-9.3 0A6.76 6.76 0 0127.59 68a8.36 8.36 0 01.6-3.37 6 6 0 011.23-1.81 5 5 0 011.7-1.18 7.19 7.19 0 012.84-.53 6.18 6.18 0 014.65 1.81 8.07 8.07 0 010 10zm12.83.75a5.6 5.6 0 01-3.5 1.05 5.67 5.67 0 01-4.31-1.8 6.85 6.85 0 01-1.68-4.89 7.21 7.21 0 011.69-5.11 5.85 5.85 0 014.47-1.82 5.48 5.48 0 013.92 1.43 5.16 5.16 0 011.35 2.43l-2.64.63a2.7 2.7 0 00-1-1.62 2.75 2.75 0 00-1.8-.59 3 3 0 00-2.37 1 5.12 5.12 0 00-.91 3.4 5.49 5.49 0 00.89 3.55 2.91 2.91 0 002.34 1.06 2.66 2.66 0 001.82-.67 4 4 0 001.1-2.12l2.57.82a5.74 5.74 0 01-1.94 3.21z" fill="#e72c31"/><path d="M22.11 64.27a2.66 2.66 0 00-1.23-.62 12.67 12.67 0 00-2.19-.12H17.5v8.71h2a7.56 7.56 0 001.61-.12 2.52 2.52 0 001.08-.55 2.84 2.84 0 00.69-1.27 8.55 8.55 0 00.27-2.41 7.79 7.79 0 00-.27-2.34 3.06 3.06 0 00-.77-1.28zM13.2 31.91L9.88 17.99h2.87l2.1 9.56 2.54-9.56h3.35l2.44 9.72 2.13-9.72h2.83l-3.33 13.92h-3L19.04 21.5l-2.76 10.41z" fill="#e72c31"/></svg><svg viewBox="0 0 24 24" id="email" xmlns="http://www.w3.org/2000/svg"><path d="M0 0h24v24H0z" fill="none"/><path d="M20 4H4c-1.1 0-1.99.9-1.99 2L2 18c0 1.1.9 2 2 2h16c1.1 0 2-.9 2-2V6c0-1.1-.9-2-2-2zm0 4l-8 5-8-5V6l8 5 8-5v2z"/></svg><svg viewBox="0 0 24 24" id="marker" xmlns="http://www.w3.org/2000/svg"><path d="M0 0h24v24H0z" fill="none"/><path d="M12 2C8.13 2 5 5.13 5 9c0 5.25 7 13 7 13s7-7.75 7-13c0-3.87-3.13-7-7-7zm0 9.5a2.5 2.5 0 010-5 2.5 2.5 0 010 5z"/></svg><svg viewBox="0 0 24 24" id="phone" xmlns="http://www.w3.org/2000/svg"><path d="M0 0h24v24H0z" fill="none"/><path d="M6.62 10.79c1.44 2.83 3.76 5.14 6.59 6.59l2.2-2.2c.27-.27.67-.36 1.02-.24 1.12.37 2.33.57 3.57.57.55 0 1 .45 1 1V20c0 .55-.45 1-1 1-9.39 0-17-7.61-17-17 0-.55.45-1 1-1h3.5c.55 0 1 .45 1 1 0 1.25.2 2.45.57 3.57.11.35.03.74-.25 1.02l-2.2 2.2z"/></svg><svg viewBox="0 0 24 24" id="time" xmlns="http://www.w3.org/2000/svg"><path d="M0 0h24v24H0z" fill="none"/><path d="M11.99 2C6.47 2 2 6.48 2 12s4.47 10 9.99 10C17.52 22 22 17.52 22 12S17.52 2 11.99 2zM12 20c-4.42 0-8-3.58-8-8s3.58-8 8-8 8 3.58 8 8-3.58 8-8 8z"/><path d="M12.5 7H11v6l5.25 3.15.75-1.23-4.5-2.67z"/></svg><svg data-name="Слой 1" viewBox="0 0 67.85 87.43" id="xls" xmlns="http://www.w3.org/2000/svg"><path d="M67.51 22.04L45.81.33 45.47 0H0v87.43h67.85V22.38zm-3.87 61.17H4.26v-79h41.79v17.63h17.63z" fill="#a5acc6"/><path d="M9.88 56.33v22.65h48.9V56.33zm12.67 18.13l-2.92-4.55-2.93 4.55h-3.18l4.49-6.87-4.07-6.29h3.1l2.64 4.22 2.59-4.22h3.08l-4.09 6.39 4.49 6.77zm13.91 0h-9.27V61.4h2.66v10.84h6.61zm11.29-1.72a3.75 3.75 0 01-1.78 1.47 7.43 7.43 0 01-2.86.48 5.72 5.72 0 01-3.83-1.15 5 5 0 01-1.6-3.37l2.58-.25a3.18 3.18 0 001 1.92 3.5 3.5 0 003.86.06 1.59 1.59 0 00.65-1.27 1.2 1.2 0 00-.27-.79 2.13 2.13 0 00-1-.57c-.31-.11-1-.3-2.13-.58a7.18 7.18 0 01-3-1.3 3.45 3.45 0 01-1.21-2.65 3.4 3.4 0 01.57-1.88 3.61 3.61 0 011.65-1.33 6.45 6.45 0 012.59-.46 5.54 5.54 0 013.73 1.09 3.83 3.83 0 011.31 2.9l-2.66.11a2.24 2.24 0 00-.73-1.46 2.7 2.7 0 00-1.68-.44 3 3 0 00-1.81.48 1 1 0 00-.43.81 1 1 0 00.4.8 6.87 6.87 0 002.44.88 13 13 0 012.87 1 3.62 3.62 0 011.45 1.34 4.11 4.11 0 01-.1 4.21zM14.47 16.67h5.08v35.34h-5.08zM23.13 23.76h5.08v28.25h-5.08zM31.79 30.85h5.08v21.16h-5.08zM40.45 37.94h5.08v14.07h-5.08zM49.11 45.03h5.08v6.99h-5.08z" fill="#e72c31"/></svg></svg>