<svg id="Слой_1" data-name="Слой 1" xmlns="http://www.w3.org/2000/svg" width="67.85" height="87.43" viewBox="0 0 67.85 87.43"><path d="M993.7,518.67,972,497l-.33-.34H926.19v87.43H994V519Zm-3.88,61.18H930.41v-79h41.78v17.63h17.63Z" transform="translate(-926.19 -496.63)" fill="#a5acc6"/><rect x="30.14" y="17.99" width="11.58" height="3.83" fill="#e72c31"/><rect x="30.11" y="28.05" width="28.6" height="3.83" fill="#e72c31"/><rect x="9.87" y="38.12" width="48.84" height="3.83" fill="#e72c31"/><rect x="9.87" y="48.18" width="48.84" height="3.83" fill="#e72c31"/><path d="M960.17,560a3.37,3.37,0,0,0-2.64,1.12,6.16,6.16,0,0,0,0,6.79,3.56,3.56,0,0,0,5.23,0,5,5,0,0,0,1-3.43,5,5,0,0,0-1-3.38A3.36,3.36,0,0,0,960.17,560Z" transform="translate(-926.19 -496.63)" fill="#e72c31"/><path d="M936.07,553v22.66H985V553Zm15.59,14.48a5.76,5.76,0,0,1-1.41,2.32,4.63,4.63,0,0,1-1.86,1,7.92,7.92,0,0,1-2.36.28h-5V557.93h4.86a9.44,9.44,0,0,1,2.51.25,4.42,4.42,0,0,1,2,1.21,5.79,5.79,0,0,1,1.26,2.13,10,10,0,0,1,.43,3.12A8.66,8.66,0,0,1,951.66,567.44Zm13.16,2.08a6.91,6.91,0,0,1-9.3,0,6.76,6.76,0,0,1-1.74-4.93,8.36,8.36,0,0,1,.6-3.37,6,6,0,0,1,1.23-1.81,5,5,0,0,1,1.7-1.18,7.19,7.19,0,0,1,2.84-.53,6.18,6.18,0,0,1,4.65,1.81,8.07,8.07,0,0,1,0,10Zm12.83.75a5.6,5.6,0,0,1-3.5,1.05,5.67,5.67,0,0,1-4.31-1.8,6.85,6.85,0,0,1-1.68-4.89,7.21,7.21,0,0,1,1.69-5.11,5.85,5.85,0,0,1,4.47-1.82,5.48,5.48,0,0,1,3.92,1.43,5.16,5.16,0,0,1,1.35,2.43l-2.64.63a2.7,2.7,0,0,0-1-1.62,2.75,2.75,0,0,0-1.8-.59,3,3,0,0,0-2.37,1,5.12,5.12,0,0,0-.91,3.4,5.49,5.49,0,0,0,.89,3.55,2.91,2.91,0,0,0,2.34,1.06,2.66,2.66,0,0,0,1.82-.67,4,4,0,0,0,1.1-2.12l2.57.82A5.74,5.74,0,0,1,977.65,570.27Z" transform="translate(-926.19 -496.63)" fill="#e72c31"/><path d="M948.3,560.9a2.66,2.66,0,0,0-1.23-.62,12.67,12.67,0,0,0-2.19-.12h-1.19v8.71h2a7.56,7.56,0,0,0,1.61-.12,2.52,2.52,0,0,0,1.08-.55,2.84,2.84,0,0,0,.69-1.27,8.55,8.55,0,0,0,.27-2.41,7.79,7.79,0,0,0-.27-2.34A3.06,3.06,0,0,0,948.3,560.9Z" transform="translate(-926.19 -496.63)" fill="#e72c31"/><path d="M939.39,528.54l-3.32-13.92h2.87l2.1,9.56,2.54-9.56h3.35l2.44,9.72,2.13-9.72h2.83L951,528.54h-3l-2.77-10.41-2.76,10.41Z" transform="translate(-926.19 -496.63)" fill="#e72c31"/></svg>