<svg id="Слой_1" data-name="Слой 1" xmlns="http://www.w3.org/2000/svg" width="67.85" height="87.43" viewBox="0 0 67.85 87.43"><path d="M1111.25,516.44l-21.7-21.71-.34-.33h-45.47v87.43h67.85V516.78Zm-3.87,61.17H1048v-79h41.79v17.63h17.63Z" transform="translate(-1043.74 -494.4)" fill="#a5acc6"/><path d="M1053.62,550.73v22.65h48.9V550.73Zm12.67,18.13-2.92-4.55-2.93,4.55h-3.18l4.49-6.87-4.07-6.29h3.1l2.64,4.22,2.59-4.22h3.08l-4.09,6.39,4.49,6.77Zm13.91,0h-9.27V555.8h2.66v10.84h6.61Zm11.29-1.72a3.75,3.75,0,0,1-1.78,1.47,7.43,7.43,0,0,1-2.86.48,5.72,5.72,0,0,1-3.83-1.15,5,5,0,0,1-1.6-3.37l2.58-.25a3.18,3.18,0,0,0,1,1.92,3.5,3.5,0,0,0,3.86.06,1.59,1.59,0,0,0,.65-1.27,1.2,1.2,0,0,0-.27-.79,2.13,2.13,0,0,0-1-.57c-.31-.11-1-.3-2.13-.58a7.18,7.18,0,0,1-3-1.3,3.45,3.45,0,0,1-1.21-2.65,3.4,3.4,0,0,1,.57-1.88,3.61,3.61,0,0,1,1.65-1.33,6.45,6.45,0,0,1,2.59-.46,5.54,5.54,0,0,1,3.73,1.09,3.83,3.83,0,0,1,1.31,2.9l-2.66.11a2.24,2.24,0,0,0-.73-1.46,2.7,2.7,0,0,0-1.68-.44,3,3,0,0,0-1.81.48,1,1,0,0,0-.43.81,1,1,0,0,0,.4.8,6.87,6.87,0,0,0,2.44.88,13,13,0,0,1,2.87,1,3.62,3.62,0,0,1,1.45,1.34,4.11,4.11,0,0,1-.1,4.21Z" transform="translate(-1043.74 -494.4)" fill="#e72c31"/><rect x="14.47" y="16.67" width="5.08" height="35.34" fill="#e72c31"/><rect x="23.13" y="23.76" width="5.08" height="28.25" fill="#e72c31"/><rect x="31.79" y="30.85" width="5.08" height="21.16" fill="#e72c31"/><rect x="40.45" y="37.94" width="5.08" height="14.07" fill="#e72c31"/><rect x="49.11" y="45.03" width="5.08" height="6.99" fill="#e72c31"/></svg>